<?xml version="1.0" encoding="UTF-8"?>
<!DOCTYPE svg PUBLIC "-//W3C//DTD SVG 1.1//EN" "http://www.w3.org/Graphics/SVG/1.1/DTD/svg11.dtd">
<svg xmlns="http://www.w3.org/2000/svg" version="1.1" width="500px" height="499px" style="shape-rendering:geometricPrecision; text-rendering:geometricPrecision; image-rendering:optimizeQuality; fill-rule:evenodd; clip-rule:evenodd" xmlns:xlink="http://www.w3.org/1999/xlink">
<g><path style="opacity:1" fill="#bc7b7b" d="M 283.5,59.5 C 276.136,120.223 298.136,166.723 349.5,199C 359.386,203.677 369.386,207.844 379.5,211.5C 380.209,212.404 381.209,212.737 382.5,212.5C 382.5,213.5 382.5,214.5 382.5,215.5C 379.86,213.992 377.527,214.326 375.5,216.5C 378.986,217.276 382.486,217.942 386,218.5C 389.518,217.284 393.185,216.617 397,216.5C 402.754,216.393 408.087,217.06 413,218.5C 422.871,217.248 432.704,215.915 442.5,214.5C 444.101,221.99 445.101,229.657 445.5,237.5C 444.167,237.5 442.833,237.5 441.5,237.5C 435.892,235.226 431.392,236.559 428,241.5C 427.51,240.207 427.343,238.873 427.5,237.5C 424.344,236.449 421.344,236.449 418.5,237.5C 417.542,237.953 416.708,238.619 416,239.5C 411.899,236.518 407.399,234.852 402.5,234.5C 397.696,234.905 393.029,235.905 388.5,237.5C 383.477,234.571 378.144,233.905 372.5,235.5C 371.686,233.234 371.186,230.9 371,228.5C 368.555,227.094 366.055,225.76 363.5,224.5C 359.39,225.795 355.39,227.295 351.5,229C 353.988,230.685 353.655,232.019 350.5,233C 343.021,235.09 335.354,236.09 327.5,236C 326.975,236.692 326.308,237.192 325.5,237.5C 324.006,235.438 322.34,233.438 320.5,231.5C 318.591,230.652 316.591,230.318 314.5,230.5C 311.028,230.126 308.028,231.126 305.5,233.5C 304.751,236.91 303.751,240.244 302.5,243.5C 302.29,240.614 302.123,237.614 302,234.5C 301.692,233.692 301.192,233.025 300.5,232.5C 295.849,231.297 291.182,231.297 286.5,232.5C 286.795,234.735 286.461,236.735 285.5,238.5C 276.46,229.085 267.46,219.418 258.5,209.5C 238.028,183.611 224.361,154.445 217.5,122C 191.156,128.189 168.823,141.356 150.5,161.5C 148.833,161.5 147.167,161.5 145.5,161.5C 144.608,165.846 142.274,169.179 138.5,171.5C 136.229,175.676 134.562,180.009 133.5,184.5C 133.573,186.027 132.906,187.027 131.5,187.5C 129.824,188.183 129.157,189.517 129.5,191.5C 128.5,191.5 127.5,191.5 126.5,191.5C 124.291,195.148 122.291,198.982 120.5,203C 121.059,203.725 121.392,204.558 121.5,205.5C 119.897,212.218 118.23,218.884 116.5,225.5C 114.031,226.168 111.698,226.835 109.5,227.5C 105.474,228.48 103.807,231.147 104.5,235.5C 106.262,235.357 107.929,235.691 109.5,236.5C 110.833,237.167 110.833,237.833 109.5,238.5C 105.892,237.407 102.225,237.24 98.5,238C 95.7713,238.566 93.7713,240.066 92.5,242.5C 91.1266,242.657 89.7932,242.49 88.5,242C 87.9707,239.571 86.6374,237.738 84.5,236.5C 75.8274,234.427 67.6607,235.427 60,239.5C 58.7441,239.352 57.5774,239.018 56.5,238.5C 55.6364,237.312 54.6364,236.145 53.5,235C 50.6089,233.726 47.9422,232.226 45.5,230.5C 46.8221,230.33 47.9887,230.663 49,231.5C 59.2159,153.309 100.049,97.8086 171.5,65C 180.311,61.4514 189.311,58.6181 198.5,56.5C 206.117,57.0878 213.45,55.9211 220.5,53C 241.663,50.5771 262.663,51.4105 283.5,55.5C 283.5,56.8333 283.5,58.1667 283.5,59.5 Z"/></g>
<g><path style="opacity:0.941" fill="#c49c9c" d="M 283.5,59.5 C 283.5,58.1667 283.5,56.8333 283.5,55.5C 262.663,51.4105 241.663,50.5771 220.5,53C 213.45,55.9211 206.117,57.0878 198.5,56.5C 227.126,48.5184 256.126,47.5184 285.5,53.5C 285.741,55.8984 285.074,57.8984 283.5,59.5 Z"/></g>
<g><path style="opacity:1" fill="#c89ea0" d="M 150.5,161.5 C 144.09,168.671 138.423,176.337 133.5,184.5C 134.562,180.009 136.229,175.676 138.5,171.5C 142.274,169.179 144.608,165.846 145.5,161.5C 147.167,161.5 148.833,161.5 150.5,161.5 Z"/></g>
<g><path style="opacity:1" fill="#be9091" d="M 131.5,187.5 C 129.822,192.354 127.655,197.021 125,201.5C 122.034,211.027 119.867,220.693 118.5,230.5C 115.792,228.647 112.792,227.647 109.5,227.5C 111.698,226.835 114.031,226.168 116.5,225.5C 118.23,218.884 119.897,212.218 121.5,205.5C 121.392,204.558 121.059,203.725 120.5,203C 122.291,198.982 124.291,195.148 126.5,191.5C 127.5,191.5 128.5,191.5 129.5,191.5C 129.157,189.517 129.824,188.183 131.5,187.5 Z"/></g>
<g><path style="opacity:1" fill="#bc898a" d="M 379.5,211.5 C 390.713,213.732 402.046,215.065 413.5,215.5C 423.557,214.813 433.557,213.979 443.5,213C 445.057,220.207 446.057,227.54 446.5,235C 446.608,236.681 447.275,237.848 448.5,238.5C 447.5,239.833 446.5,241.167 445.5,242.5C 444.833,241.833 444.167,241.167 443.5,240.5C 443.218,239.222 442.551,238.222 441.5,237.5C 442.833,237.5 444.167,237.5 445.5,237.5C 445.101,229.657 444.101,221.99 442.5,214.5C 432.704,215.915 422.871,217.248 413,218.5C 408.087,217.06 402.754,216.393 397,216.5C 393.185,216.617 389.518,217.284 386,218.5C 382.486,217.942 378.986,217.276 375.5,216.5C 377.527,214.326 379.86,213.992 382.5,215.5C 382.5,214.5 382.5,213.5 382.5,212.5C 381.209,212.737 380.209,212.404 379.5,211.5 Z"/></g>
<g><path style="opacity:0.999" fill="#0e0909" d="M 109.5,227.5 C 112.792,227.647 115.792,228.647 118.5,230.5C 119.329,238.657 119.829,246.99 120,255.5C 123.257,260.253 122.424,264.253 117.5,267.5C 113.484,268.1 109.984,267.1 107,264.5C 106.517,265.448 106.351,266.448 106.5,267.5C 98.7958,268.649 93.4625,265.649 90.5,258.5C 88.8702,252.872 89.5369,247.538 92.5,242.5C 93.7713,240.066 95.7713,238.566 98.5,238C 102.225,237.24 105.892,237.407 109.5,238.5C 110.833,237.833 110.833,237.167 109.5,236.5C 107.929,235.691 106.262,235.357 104.5,235.5C 103.807,231.147 105.474,228.48 109.5,227.5 Z"/></g>
<g><path style="opacity:0.986" fill="#0c0b0b" d="M 45.5,230.5 C 47.9422,232.226 50.6089,233.726 53.5,235C 54.6364,236.145 55.6364,237.312 56.5,238.5C 59.0587,245.439 57.0587,250.605 50.5,254C 59.8786,256.42 60.8786,260.754 53.5,267C 51.1902,267.497 48.8568,267.663 46.5,267.5C 43.8517,267.262 42.0183,265.928 41,263.5C 40.8333,266.333 39.3333,267.833 36.5,268C 31.8481,269.193 27.6814,268.36 24,265.5C 23.1804,254.59 23.3471,243.757 24.5,233C 31.3392,230.331 38.3392,229.498 45.5,230.5 Z"/></g>
<g><path style="opacity:0.979" fill="#121212" d="M 237.5,245.5 C 238.127,248.734 238.127,251.901 237.5,255C 237.944,256.762 238.444,256.595 239,254.5C 239.022,249.182 238.855,243.849 238.5,238.5C 239.514,237.235 241.014,236.569 243,236.5C 245.47,236.34 247.636,237.007 249.5,238.5C 254.143,235.129 259.143,234.629 264.5,237C 266.378,238.543 267.878,240.376 269,242.5C 269.499,247.155 269.666,251.821 269.5,256.5C 270.219,258.764 270.552,261.097 270.5,263.5C 270.084,265.752 268.751,267.252 266.5,268C 262.537,269.137 259.204,268.303 256.5,265.5C 255.452,263.067 254.786,263.067 254.5,265.5C 253.942,266.79 252.942,267.623 251.5,268C 242.926,269.761 238.426,266.261 238,257.5C 231.696,269.929 222.53,272.429 210.5,265C 209.126,262.417 207.626,259.917 206,257.5C 200.97,268.513 192.803,271.68 181.5,267C 178.937,265.438 177.104,263.272 176,260.5C 174.957,266.521 171.29,269.188 165,268.5C 158.884,268.551 155.384,265.551 154.5,259.5C 153.34,261.875 152.34,264.208 151.5,266.5C 147.548,267.272 143.548,267.605 139.5,267.5C 137.097,267.607 135.264,266.607 134,264.5C 133.362,256.098 133.862,247.765 135.5,239.5C 136.268,237.285 136.935,234.952 137.5,232.5C 141.538,230.478 145.871,229.978 150.5,231C 152.259,232.008 153.426,233.508 154,235.5C 154.574,233.508 155.741,232.008 157.5,231C 161.167,230.333 164.833,230.333 168.5,231C 170.32,231.979 171.487,233.479 172,235.5C 172.503,240.19 173.17,244.857 174,249.5C 175.678,240.827 181.011,235.827 190,234.5C 197.718,235.356 203.052,239.356 206,246.5C 212.668,234.542 221.835,232.042 233.5,239C 235.248,241.013 236.582,243.18 237.5,245.5 Z"/></g>
<g><path style="opacity:0.986" fill="#0f0e0d" d="M 314.5,230.5 C 317.27,231.31 319.437,232.977 321,235.5C 321.578,243.869 322.411,252.202 323.5,260.5C 323.5,262.167 323.5,263.833 323.5,265.5C 317.866,269.493 312.199,269.493 306.5,265.5C 305.652,263.591 305.318,261.591 305.5,259.5C 304.5,259.5 303.5,259.5 302.5,259.5C 302.663,261.857 302.497,264.19 302,266.5C 295.225,269.656 288.892,268.989 283,264.5C 282.877,255.622 283.71,246.955 285.5,238.5C 286.461,236.735 286.795,234.735 286.5,232.5C 291.182,231.297 295.849,231.297 300.5,232.5C 301.192,233.025 301.692,233.692 302,234.5C 302.123,237.614 302.29,240.614 302.5,243.5C 303.751,240.244 304.751,236.91 305.5,233.5C 308.028,231.126 311.028,230.126 314.5,230.5 Z"/></g>
<g><path style="opacity:0.108" fill="#b5b5b5" d="M 137.5,232.5 C 136.935,234.952 136.268,237.285 135.5,239.5C 134.99,236.612 135.656,234.279 137.5,232.5 Z"/></g>
<g><path style="opacity:0.969" fill="#121111" d="M 466.5,236.5 C 467.514,237.674 468.847,238.34 470.5,238.5C 472.027,241.796 471.693,244.962 469.5,248C 473.991,252.906 474.658,258.406 471.5,264.5C 463.608,270.606 455.608,270.94 447.5,265.5C 447.5,264.833 447.167,264.5 446.5,264.5C 443.602,260.716 443.935,257.216 447.5,254C 445.71,250.417 445.043,246.584 445.5,242.5C 446.5,241.167 447.5,239.833 448.5,238.5C 454.121,234.577 460.121,233.91 466.5,236.5 Z"/></g>
<g><path style="opacity:1" fill="#0a0404" d="M 87.5,259.5 C 87.6747,261.621 87.3414,263.621 86.5,265.5C 65.8196,271.97 56.9863,264.637 60,243.5C 68.2334,234.979 77.0667,234.312 86.5,241.5C 89.4204,246.616 89.0871,251.45 85.5,256C 84.5,256.333 83.5,256.667 82.5,257C 78.3299,257.325 74.3299,257.491 70.5,257.5C 70.7093,258.086 71.0426,258.586 71.5,259C 76.3275,259.884 80.9942,259.384 85.5,257.5C 86.1818,258.243 86.8485,258.909 87.5,259.5 Z"/></g>
<g><path style="opacity:0.998" fill="#0a0505" d="M 345.5,267.5 C 343.903,266.91 342.569,265.91 341.5,264.5C 340.614,265.325 340.281,266.325 340.5,267.5C 337.5,267.5 334.5,267.5 331.5,267.5C 329.326,267.25 327.659,266.25 326.5,264.5C 325.64,260.566 325.307,256.566 325.5,252.5C 326.673,250.496 328.34,248.996 330.5,248C 333.553,247.821 336.553,247.321 339.5,246.5C 335.507,245.387 331.507,245.387 327.5,246.5C 327.187,243.753 327.52,241.086 328.5,238.5C 333.647,236.501 338.981,236.001 344.5,237C 348.598,238.1 351.431,240.6 353,244.5C 353.694,251.174 354.027,257.841 354,264.5C 351.695,266.93 348.862,267.93 345.5,267.5 Z"/></g>
<g><path style="opacity:1" fill="#a07071" d="M 418.5,237.5 C 417.94,239.801 417.44,242.134 417,244.5C 412.152,236.944 405.318,234.444 396.5,237C 388.064,241.386 385.23,248.219 388,257.5C 389.068,262.235 391.901,265.402 396.5,267C 401.167,267.667 405.833,267.667 410.5,267C 415.056,265.519 416.723,262.352 415.5,257.5C 410.629,259.208 405.629,259.708 400.5,259C 399.833,258.333 399.167,257.667 398.5,257C 402.757,257.532 407.091,257.532 411.5,257C 415.308,254.652 417.475,251.152 418,246.5C 419.129,252.689 419.963,259.023 420.5,265.5C 424.321,267.944 428.321,268.11 432.5,266C 433.139,263.589 433.473,261.089 433.5,258.5C 433.426,255.713 432.76,253.213 431.5,251C 440.727,253.224 444.727,249.724 443.5,240.5C 444.167,241.167 444.833,241.833 445.5,242.5C 445.043,246.584 445.71,250.417 447.5,254C 443.935,257.216 443.602,260.716 446.5,264.5C 445.504,264.586 444.671,264.252 444,263.5C 443.503,259.476 443.669,255.476 444.5,251.5C 441.193,252.051 437.86,252.384 434.5,252.5C 437.718,269.216 431.718,273.882 416.5,266.5C 410.025,268.683 403.358,269.516 396.5,269C 393.442,267.782 390.776,265.949 388.5,263.5C 387.735,264.612 386.735,265.279 385.5,265.5C 386.58,262.257 386.747,258.924 386,255.5C 384.22,254.406 382.386,253.406 380.5,252.5C 382.489,250.676 384.323,248.676 386,246.5C 386.306,237.663 382.139,234.663 373.5,237.5C 372.319,241.224 370.486,244.558 368,247.5C 368.025,245.08 368.691,242.747 370,240.5C 372.028,229.561 367.528,225.561 356.5,228.5C 356.333,240.505 356.5,252.505 357,264.5C 360.719,267.902 364.886,268.402 369.5,266C 369.214,262.905 369.214,259.738 369.5,256.5C 370.458,259.725 371.792,262.725 373.5,265.5C 371.223,266.449 369.223,267.782 367.5,269.5C 363.116,269.106 358.949,268.106 355,266.5C 353.779,267.272 352.779,268.272 352,269.5C 349.723,268.883 347.556,268.216 345.5,267.5C 348.862,267.93 351.695,266.93 354,264.5C 354.027,257.841 353.694,251.174 353,244.5C 351.431,240.6 348.598,238.1 344.5,237C 338.981,236.001 333.647,236.501 328.5,238.5C 327.52,241.086 327.187,243.753 327.5,246.5C 331.507,245.387 335.507,245.387 339.5,246.5C 336.553,247.321 333.553,247.821 330.5,248C 328.34,248.996 326.673,250.496 325.5,252.5C 324.833,255.167 324.167,257.833 323.5,260.5C 322.411,252.202 321.578,243.869 321,235.5C 319.437,232.977 317.27,231.31 314.5,230.5C 316.591,230.318 318.591,230.652 320.5,231.5C 322.34,233.438 324.006,235.438 325.5,237.5C 326.308,237.192 326.975,236.692 327.5,236C 335.354,236.09 343.021,235.09 350.5,233C 353.655,232.019 353.988,230.685 351.5,229C 355.39,227.295 359.39,225.795 363.5,224.5C 366.055,225.76 368.555,227.094 371,228.5C 371.186,230.9 371.686,233.234 372.5,235.5C 378.144,233.905 383.477,234.571 388.5,237.5C 393.029,235.905 397.696,234.905 402.5,234.5C 407.399,234.852 411.899,236.518 416,239.5C 416.708,238.619 417.542,237.953 418.5,237.5 Z"/></g>
<g><path style="opacity:1" fill="#080202" d="M 385.5,265.5 C 381.458,268.157 377.458,268.157 373.5,265.5C 371.792,262.725 370.458,259.725 369.5,256.5C 369.214,259.738 369.214,262.905 369.5,266C 364.886,268.402 360.719,267.902 357,264.5C 356.5,252.505 356.333,240.505 356.5,228.5C 367.528,225.561 372.028,229.561 370,240.5C 368.691,242.747 368.025,245.08 368,247.5C 370.486,244.558 372.319,241.224 373.5,237.5C 382.139,234.663 386.306,237.663 386,246.5C 384.323,248.676 382.489,250.676 380.5,252.5C 382.386,253.406 384.22,254.406 386,255.5C 386.747,258.924 386.58,262.257 385.5,265.5 Z"/></g>
<g><path style="opacity:1" fill="#0b0404" d="M 418.5,237.5 C 421.344,236.449 424.344,236.449 427.5,237.5C 427.343,238.873 427.51,240.207 428,241.5C 431.392,236.559 435.892,235.226 441.5,237.5C 442.551,238.222 443.218,239.222 443.5,240.5C 444.727,249.724 440.727,253.224 431.5,251C 432.76,253.213 433.426,255.713 433.5,258.5C 433.473,261.089 433.139,263.589 432.5,266C 428.321,268.11 424.321,267.944 420.5,265.5C 419.963,259.023 419.129,252.689 418,246.5C 417.475,251.152 415.308,254.652 411.5,257C 407.091,257.532 402.757,257.532 398.5,257C 399.167,257.667 399.833,258.333 400.5,259C 405.629,259.708 410.629,259.208 415.5,257.5C 416.723,262.352 415.056,265.519 410.5,267C 405.833,267.667 401.167,267.667 396.5,267C 391.901,265.402 389.068,262.235 388,257.5C 385.23,248.219 388.064,241.386 396.5,237C 405.318,234.444 412.152,236.944 417,244.5C 417.44,242.134 417.94,239.801 418.5,237.5 Z"/></g>
<g><path style="opacity:0.008" fill="#8b8b8b" d="M 466.5,236.5 C 468.38,236.229 469.713,236.896 470.5,238.5C 468.847,238.34 467.514,237.674 466.5,236.5 Z"/></g>
<g><path style="opacity:0.145" fill="#909090" d="M 39.5,243.5 C 41.8519,244.543 42.0185,245.876 40,247.5C 39.51,246.207 39.3433,244.873 39.5,243.5 Z"/></g>
<g><path style="opacity:0.059" fill="#9b9b9b" d="M 459.5,246.5 C 461.847,245.105 464.181,245.272 466.5,247C 464.203,247.018 461.869,246.851 459.5,246.5 Z"/></g>
<g><path style="opacity:0.035" fill="#9b9b9b" d="M 238.5,238.5 C 238.855,243.849 239.022,249.182 239,254.5C 238.444,256.595 237.944,256.762 237.5,255C 238.127,251.901 238.127,248.734 237.5,245.5C 237.198,242.941 237.532,240.607 238.5,238.5 Z"/></g>
<g><path style="opacity:0.275" fill="#868686" d="M 189.5,247.5 C 190.117,247.611 190.617,247.944 191,248.5C 191.818,251.227 191.652,253.894 190.5,256.5C 189.516,253.572 189.183,250.572 189.5,247.5 Z"/></g>
<g><path style="opacity:0.208" fill="#515151" d="M 221.5,248.5 C 222.748,249.334 223.415,250.667 223.5,252.5C 223.167,253.833 222.833,255.167 222.5,256.5C 221.52,253.914 221.187,251.247 221.5,248.5 Z"/></g>
<g><path style="opacity:1" fill="#9d6e70" d="M 92.5,242.5 C 89.5369,247.538 88.8702,252.872 90.5,258.5C 88.8041,256.871 87.8041,257.204 87.5,259.5C 86.8485,258.909 86.1818,258.243 85.5,257.5C 80.9942,259.384 76.3275,259.884 71.5,259C 71.0426,258.586 70.7093,258.086 70.5,257.5C 74.3299,257.491 78.3299,257.325 82.5,257C 83.5,256.667 84.5,256.333 85.5,256C 89.0871,251.45 89.4204,246.616 86.5,241.5C 77.0667,234.312 68.2334,234.979 60,243.5C 56.9863,264.637 65.8196,271.97 86.5,265.5C 86.5858,266.496 86.2524,267.329 85.5,268C 78.8023,269.824 72.1356,269.824 65.5,268C 64.354,267.355 63.354,266.522 62.5,265.5C 60.3968,267.88 59.2301,267.213 59,263.5C 57.647,264.685 56.4803,266.019 55.5,267.5C 53.9547,268.452 52.288,268.785 50.5,268.5C 48.901,268.768 47.5676,268.434 46.5,267.5C 48.8568,267.663 51.1902,267.497 53.5,267C 60.8786,260.754 59.8786,256.42 50.5,254C 57.0587,250.605 59.0587,245.439 56.5,238.5C 57.5774,239.018 58.7441,239.352 60,239.5C 67.6607,235.427 75.8274,234.427 84.5,236.5C 86.6374,237.738 87.9707,239.571 88.5,242C 89.7932,242.49 91.1266,242.657 92.5,242.5 Z"/></g>
<g><path style="opacity:0.182" fill="#939393" d="M 269.5,256.5 C 270.993,257.312 271.66,258.645 271.5,260.5C 271.48,261.726 271.147,262.726 270.5,263.5C 270.552,261.097 270.219,258.764 269.5,256.5 Z"/></g>
<g><path style="opacity:0.729" fill="#514344" d="M 325.5,252.5 C 325.307,256.566 325.64,260.566 326.5,264.5C 325.883,264.389 325.383,264.056 325,263.5C 324.722,264.416 324.222,265.082 323.5,265.5C 323.5,263.833 323.5,262.167 323.5,260.5C 324.167,257.833 324.833,255.167 325.5,252.5 Z"/></g>
<g><path style="opacity:1" fill="#bc7b7c" d="M 446.5,264.5 C 447.167,264.5 447.5,264.833 447.5,265.5C 445.603,278.654 442.936,291.654 439.5,304.5C 436.538,304.117 435.538,305.117 436.5,307.5C 433.568,316.976 430.568,326.31 427.5,335.5C 405.848,380.819 371.848,413.152 325.5,432.5C 319.392,433.657 313.392,435.324 307.5,437.5C 305.38,436.128 304.38,436.795 304.5,439.5C 298.124,438.901 292.124,440.068 286.5,443C 287.416,443.278 288.082,443.778 288.5,444.5C 217.077,457.064 155.577,438.064 104,387.5C 91.8097,373.971 81.143,359.304 72,343.5C 70.5263,340.244 69.3597,336.911 68.5,333.5C 68.1449,331.11 67.4783,328.777 66.5,326.5C 67.1822,324.159 67.8489,321.826 68.5,319.5C 67.5,319.5 66.5,319.5 65.5,319.5C 65.6495,320.552 65.4828,321.552 65,322.5C 62.7742,318.155 60.6075,313.822 58.5,309.5C 54.1708,296.216 51.5041,282.549 50.5,268.5C 52.288,268.785 53.9547,268.452 55.5,267.5C 56.4803,266.019 57.647,264.685 59,263.5C 59.2301,267.213 60.3968,267.88 62.5,265.5C 63.354,266.522 64.354,267.355 65.5,268C 72.1356,269.824 78.8023,269.824 85.5,268C 86.2524,267.329 86.5858,266.496 86.5,265.5C 87.3414,263.621 87.6747,261.621 87.5,259.5C 87.8041,257.204 88.8041,256.871 90.5,258.5C 93.4625,265.649 98.7958,268.649 106.5,267.5C 106.351,266.448 106.517,265.448 107,264.5C 109.984,267.1 113.484,268.1 117.5,267.5C 126.643,316.284 153.643,350.951 198.5,371.5C 199.6,372.558 200.934,373.392 202.5,374C 202.167,374.333 201.833,374.667 201.5,375C 207.14,375.156 212.473,376.489 217.5,379C 221.152,379.499 224.818,379.665 228.5,379.5C 288.432,385.613 333.599,362.946 364,311.5C 368.747,301.844 372.58,291.844 375.5,281.5C 375.392,280.558 375.059,279.725 374.5,279C 359.94,275.702 345.607,271.868 331.5,267.5C 334.5,267.5 337.5,267.5 340.5,267.5C 340.281,266.325 340.614,265.325 341.5,264.5C 342.569,265.91 343.903,266.91 345.5,267.5C 347.556,268.216 349.723,268.883 352,269.5C 352.779,268.272 353.779,267.272 355,266.5C 358.949,268.106 363.116,269.106 367.5,269.5C 369.223,267.782 371.223,266.449 373.5,265.5C 377.458,268.157 381.458,268.157 385.5,265.5C 386.735,265.279 387.735,264.612 388.5,263.5C 390.776,265.949 393.442,267.782 396.5,269C 403.358,269.516 410.025,268.683 416.5,266.5C 431.718,273.882 437.718,269.216 434.5,252.5C 437.86,252.384 441.193,252.051 444.5,251.5C 443.669,255.476 443.503,259.476 444,263.5C 444.671,264.252 445.504,264.586 446.5,264.5 Z"/></g>
<g><path style="opacity:0.035" fill="#bbbbbb" d="M 256.5,265.5 C 255.833,265.5 255.167,265.5 254.5,265.5C 254.786,263.067 255.452,263.067 256.5,265.5 Z"/></g>
<g><path style="opacity:0.369" fill="#999999" d="M 151.5,266.5 C 149.538,268.017 147.205,268.684 144.5,268.5C 142.631,268.493 140.964,268.16 139.5,267.5C 143.548,267.605 147.548,267.272 151.5,266.5 Z"/></g>
<g><path style="opacity:1" fill="#c3999a" d="M 439.5,304.5 C 436.556,315.305 432.556,325.638 427.5,335.5C 430.568,326.31 433.568,316.976 436.5,307.5C 435.538,305.117 436.538,304.117 439.5,304.5 Z"/></g>
<g><path style="opacity:1" fill="#c59696" d="M 58.5,309.5 C 60.6075,313.822 62.7742,318.155 65,322.5C 65.4828,321.552 65.6495,320.552 65.5,319.5C 66.5,319.5 67.5,319.5 68.5,319.5C 67.8489,321.826 67.1822,324.159 66.5,326.5C 67.4783,328.777 68.1449,331.11 68.5,333.5C 66.8639,332.251 65.6972,330.584 65,328.5C 62.5405,322.229 60.3738,315.896 58.5,309.5 Z"/></g>
<g><path style="opacity:0.959" fill="#cba5a5" d="M 198.5,371.5 C 208.395,375.026 218.395,377.693 228.5,379.5C 224.818,379.665 221.152,379.499 217.5,379C 212.473,376.489 207.14,375.156 201.5,375C 201.833,374.667 202.167,374.333 202.5,374C 200.934,373.392 199.6,372.558 198.5,371.5 Z"/></g>
<g><path style="opacity:1" fill="#c29797" d="M 325.5,432.5 C 313.744,437.995 301.411,441.995 288.5,444.5C 288.082,443.778 287.416,443.278 286.5,443C 292.124,440.068 298.124,438.901 304.5,439.5C 304.38,436.795 305.38,436.128 307.5,437.5C 313.392,435.324 319.392,433.657 325.5,432.5 Z"/></g>
</svg>
